<svg xmlns="http://www.w3.org/2000/svg" xmlns:xlink="http://www.w3.org/1999/xlink" version="1.1" x="0px" y="0px" width="100px" height="100px" viewBox="0 0 100 100" enable-background="new 0 0 100 100" xml:space="preserve">
<g id="Paint_1_">
</g>
<g id="Time">
</g>
<g id="Peg">
</g>
<g id="Peg_2">
</g>
<g id="Spray">
</g>
<g id="Service">
</g>
<g id="Green_Tea">
</g>
<g id="Dispenser">
</g>
<g id="Handheld_Vacuum">
</g>
<g id="Fan">
</g>
<g id="Glitter">
</g>
<g id="ID">
</g>
<g id="Security">
</g>
<g id="Security_2">
</g>
<g id="Work">
</g>
<g id="Calculator">
</g>
<g id="Workflow">
</g>
<g id="Crowd">
	<path d="M9.367,50.795c0-4.354,3.533-7.89,7.89-7.89c4.364,0,7.897,3.535,7.897,7.89c0,4.361-3.533,7.896-7.897,7.896   C12.901,58.691,9.367,55.156,9.367,50.795z M17.26,90.7h12.238v-8.921c0.652-21.1-12.238-19.531-12.238-19.531   S4.373,60.679,5.024,81.779V90.7H17.26z M49.939,58.691c4.364,0,7.897-3.535,7.897-7.896c0-4.354-3.533-7.89-7.897-7.89   c-4.357,0-7.89,3.535-7.89,7.89C42.049,55.156,45.582,58.691,49.939,58.691z M49.942,90.7h12.238v-8.921   c0.652-21.1-12.238-19.531-12.238-19.531s-12.887-1.568-12.237,19.531V90.7H49.942z M82.735,58.691   c4.364,0,7.897-3.535,7.897-7.896c0-4.354-3.533-7.89-7.897-7.89c-4.357,0-7.89,3.535-7.89,7.89   C74.845,55.156,78.378,58.691,82.735,58.691z M33.367,41.369c4.364,0,7.897-3.535,7.897-7.896c0-4.354-3.533-7.89-7.897-7.89   c-4.357,0-7.89,3.535-7.89,7.89C25.477,37.834,29.01,41.369,33.367,41.369z M66.106,41.369c4.364,0,7.897-3.535,7.897-7.896   c0-4.354-3.533-7.89-7.897-7.89c-4.357,0-7.89,3.535-7.89,7.89C58.216,37.834,61.749,41.369,66.106,41.369z M49.939,25.086   c4.364,0,7.897-3.535,7.897-7.896c0-4.354-3.533-7.89-7.897-7.89c-4.357,0-7.89,3.535-7.89,7.89   C42.049,21.551,45.582,25.086,49.939,25.086z M82.738,90.7h12.238v-8.921c0.652-21.1-12.238-19.531-12.238-19.531   s-12.887-1.568-12.237,19.531V90.7H82.738z"/>
</g>
</svg>